<svg xmlns="http://www.w3.org/2000/svg" width="665.079" height="919.261" viewBox="0 0 665.079 919.261"><g transform="translate(131.086 -6073.672)"><g transform="translate(-169.041 6096.564)" fill="none" opacity="0.5"><path d="M592.025-22.892C375.2-22.892,43.388,229.037,43.388,451.1s155.518,436.721,372.34,436.721,225.49-204.091,225.49-426.155S808.847-22.892,592.025-22.892Z" stroke="none"/><path d="M 592.024658203125 -20.8917236328125 C 565.6632080078125 -20.8917236328125 536.9476928710938 -17.12310791015625 506.6756896972656 -9.690673828125 C 477.3881530761719 -2.49981689453125 446.7571105957031 8.0859375 415.6334533691406 21.77264404296875 C 385.0791015625 35.208984375 354.3182983398438 51.51214599609375 324.205322265625 70.2291259765625 C 294.1151123046875 88.93182373046875 265.0006103515625 109.8402709960938 237.6705322265625 132.3737182617188 C 209.8663940429688 155.2977905273438 184.1686401367188 179.6940307617188 161.2908935546875 204.884521484375 C 137.656494140625 230.9082641601563 117.141357421875 257.6682739257813 100.3151245117188 284.4212036132813 C 82.73992919921875 312.3648681640625 69.1640625 340.3558959960938 59.96441650390625 367.6170959472656 C 55.2027587890625 381.7272338867188 51.5599365234375 395.8292236328125 49.1370849609375 409.5313415527344 C 46.64959716796875 423.5992126464844 45.3883056640625 437.58544921875 45.3883056640625 451.1013488769531 C 45.3883056640625 478.3962707519531 47.76922607421875 506.0465087890625 52.465087890625 533.2838134765625 C 57.08673095703125 560.0908203125 63.98345947265625 586.69677734375 72.96356201171875 612.362060546875 C 81.8912353515625 637.87744140625 92.932373046875 662.620361328125 105.7802734375 685.9034423828125 C 118.6887817382813 709.29638671875 133.5004272460938 731.3585205078125 149.803955078125 751.4771118164063 C 166.3510131835938 771.8960571289063 184.5574340820313 790.462158203125 203.9179077148438 806.6595458984375 C 213.7395629882813 814.8766479492188 223.9984130859375 822.594970703125 234.4096069335938 829.6004028320313 C 244.9668579101563 836.7039184570313 255.933837890625 843.2447509765625 267.0060424804688 849.0408935546875 C 278.2526245117188 854.9282836914063 289.881591796875 860.1908569335938 301.570068359375 864.6822509765625 C 313.4600219726563 869.251220703125 325.7056884765625 873.1351318359375 337.9666137695313 876.2260131835938 C 350.4547424316406 879.374267578125 363.2722778320313 881.7788696289063 376.06298828125 883.3731079101563 C 389.1044006347656 884.99853515625 402.4498291015625 885.8226318359375 415.7283935546875 885.8226318359375 C 428.998291015625 885.8226318359375 441.7857055664063 885.0387573242188 453.7353515625 883.4928588867188 C 465.4287414550781 881.9801635742188 476.6602783203125 879.6935424804688 487.1181640625 876.69677734375 C 497.3370971679688 873.7683715820313 507.1170959472656 870.07568359375 516.1864013671875 865.7213134765625 C 525.037841796875 861.4715576171875 533.4744873046875 856.465576171875 541.26220703125 850.8421630859375 C 548.8541259765625 845.3602905273438 556.056640625 839.12744140625 562.66943359375 832.3169555664063 C 569.1065063476563 825.6874389648438 575.1793212890625 818.3101806640625 580.7191162109375 810.3902587890625 C 586.099853515625 802.6976928710938 591.1417236328125 794.258544921875 595.7045288085938 785.30712890625 C 600.12255859375 776.639892578125 604.2279052734375 767.224609375 607.9068603515625 757.3226318359375 C 611.4542846679688 747.774658203125 614.7169799804688 737.47265625 617.604248046875 726.7027587890625 C 620.373779296875 716.3726196289063 622.887939453125 705.2756958007813 625.0767822265625 693.7201538085938 C 629.1708984375 672.1071166992188 632.2476806640625 648.5723876953125 634.4830932617188 621.771240234375 C 636.4094848632813 598.6754150390625 637.6983032226563 573.133544921875 638.423095703125 543.6861572265625 C 639.1239013671875 515.21435546875 639.2183837890625 486.24755859375 639.2183837890625 461.6671142578125 C 639.2183837890625 428.9192199707031 642.8701782226563 392.3578186035156 650.3823852539063 349.893798828125 C 656.9971313476563 312.5026245117188 665.640869140625 275.5826416015625 674.0000610351563 239.878173828125 C 685.513671875 190.7003784179688 696.3887939453125 144.2498168945313 699.872314453125 104.7940673828125 C 701.7244873046875 83.8153076171875 701.3724365234375 66.35650634765625 698.7958374023438 51.4202880859375 C 697.4185180664063 43.435791015625 695.3605346679688 36.0726318359375 692.67919921875 29.53546142578125 C 689.8963012695313 22.75030517578125 686.338623046875 16.60284423828125 682.1051025390625 11.263671875 C 678.02490234375 6.1177978515625 673.17578125 1.5439453125 667.6925048828125 -2.33111572265625 C 662.0272216796875 -6.33477783203125 655.4915771484375 -9.729736328125 648.267333984375 -12.4215087890625 C 640.81591796875 -15.19793701171875 632.3899536132813 -17.3170166015625 623.2233276367188 -18.7197265625 C 613.8054809570313 -20.1610107421875 603.3086547851563 -20.8917236328125 592.024658203125 -20.8917236328125 M 592.024658203125 -22.8917236328125 C 808.8466186523438 -22.8917236328125 641.2183837890625 239.6024169921875 641.2183837890625 461.6671142578125 C 641.2183837890625 683.7318115234375 632.550537109375 887.8226318359375 415.7283935546875 887.8226318359375 C 198.9064331054688 887.8226318359375 43.3883056640625 673.166015625 43.3883056640625 451.1013488769531 C 43.3883056640625 229.03662109375 375.2025146484375 -22.8917236328125 592.024658203125 -22.8917236328125 Z" stroke="none" fill="#707070"/></g><path d="M564.042-22.892c-205.763,0-520.654,239.079-520.654,449.818S210.192,808.5,415.956,808.5,606.27,637.665,606.27,426.926,769.806-22.892,564.042-22.892Z" transform="translate(-174.474 6184.431)" fill="#7ec9cf"/></g></svg>