<?xml version="1.0" encoding="utf-8"?>
<!-- Generator: Adobe Illustrator 19.0.0, SVG Export Plug-In . SVG Version: 6.00 Build 0)  -->
<svg version="1.1" id="Layer_1" xmlns="http://www.w3.org/2000/svg" xmlns:xlink="http://www.w3.org/1999/xlink" x="0px" y="0px"
	 viewBox="4.5 -33.1 657.9 836.8" style="enable-background:new 4.5 -33.1 657.9 836.8;" xml:space="preserve">
<style type="text/css">
	.st0{opacity:0.5;}
	.st1{fill:none;}
	.st2{fill:#707070;}
	.st3{fill:#7EC9CF;}
</style>
<g transform="translate(-1314.5 -7095.303)">
	<g transform="translate(2076.93 7253.04) rotate(106)" class="st0">
		<path class="st1" d="M373.7,674.1c178.1,0,342.7-276.2,342.7-446.6S549.8,109.3,371.7,109.3S-54,311.7-54,482
			S195.6,674.1,373.7,674.1z"/>
		<path class="st2" d="M373.7,672.1c10.8,0,21.9-1,32.8-3.1c10.7-2,21.6-5,32.3-9c10.5-3.8,21.1-8.7,31.6-14.3
			c10.2-5.5,20.6-11.9,30.7-19.1c19.6-13.8,39-30.8,57.7-50.3c17.9-18.7,35.1-39.8,51.2-62.8c31.1-44.4,57.3-94.5,75.8-145.1
			c18.6-50.8,28.4-99.6,28.4-140.9c0-12.8-1-24.7-2.9-35.4c-1.9-10.3-4.7-19.7-8.4-28c-1.8-4-3.8-7.9-6.1-11.5
			c-2.2-3.5-4.6-6.9-7.3-10c-2.6-3-5.4-5.9-8.4-8.6c-2.9-2.6-6.1-5.1-9.5-7.3c-6.5-4.3-14-8.1-22.2-11.1c-7.8-2.9-16.6-5.3-26.1-7
			c-9-1.7-18.7-2.9-29.6-3.7c-9.9-0.7-20.6-1.1-32.7-1.1c-26.5,0-55.2,1.7-85.6,3.5c-33.6,2-68.4,4-103.9,4c-21.6,0-44.8,3-69,9
			c-23.3,5.7-47.5,14.2-71.9,25.1c-47.6,21.4-95.2,51.7-137.5,87.9c-21.2,18.1-40.7,37.3-58.1,57.2C17.4,311,1.9,332-10.8,353
			c-13.2,21.8-23.4,43.6-30.3,64.8c-3.6,10.9-6.3,21.8-8.1,32.4C-51,460.9-52,471.6-52,482c0,10.3,0.9,20.4,2.8,29.8
			c1.8,9.2,4.5,18.1,8.1,26.5c3.5,8.2,7.8,16.1,12.9,23.5c5,7.2,10.8,14.1,17.3,20.6c6.3,6.3,13.5,12.3,21.3,18
			c7.5,5.4,15.9,10.6,24.8,15.5c8.6,4.7,18,9.1,27.9,13.1c9.5,3.9,19.8,7.6,30.5,11c10.3,3.2,21.2,6.3,32.6,9
			c10.9,2.6,22.4,5.1,34.2,7.2c22,4,46,7.3,71.5,9.8C273.9,670.1,320.3,672.1,373.7,672.1 M373.7,674.1C195.6,674.1-54,652.3-54,482
			c0-170.3,247.5-372.7,425.7-372.7c67.7,0,133.6-7.5,189.5-7.5c91.2,0,155.2,20.1,155.2,125.7C716.4,397.8,551.8,674.1,373.7,674.1
			z"/>
	</g>
	<path class="st3" d="M1356.8,7453.7c-45.2,157.6,200.1,390.6,350.8,433.8s217.9-38.3,263.1-196c45.2-157.6-164.5-521.2-320.6-532.6
		S1402,7296,1356.8,7453.7z"/>
</g>
</svg>
