<svg xmlns="http://www.w3.org/2000/svg" width="815.885" height="830.933" viewBox="0 0 815.885 830.933"><g transform="translate(53.845 -1746.198)"><g transform="translate(656.321 1954.981) rotate(115)" fill="none" opacity="0.5"><path d="M346.329-116.647c180.524,0,274.634,131.2,274.634,311.728S480.027,494.023,299.5,494.023,0,383.8,0,203.278,165.8-116.647,346.329-116.647Z" stroke="none"/><path d="M 346.3286437988281 -114.6470031738281 C 324.2297973632813 -114.6470031738281 301.9110412597656 -112.5249938964844 279.9922485351563 -108.3399963378906 C 258.5326538085938 -104.2426147460938 237.2649536132813 -98.13284301757813 216.780029296875 -90.18038940429688 C 196.5382690429688 -82.3223876953125 176.9167175292969 -72.6102294921875 158.4603271484375 -61.3138427734375 C 140.0357360839844 -50.03683471679688 122.6557312011719 -37.10983276367188 106.8031616210938 -22.89190673828125 C 90.81304931640625 -8.550445556640625 76.268798828125 7.20245361328125 63.57464599609375 23.92922973632813 C 50.64642333984375 40.9644775390625 39.5294189453125 59.154296875 30.53240966796875 77.99337768554688 C 21.2939453125 97.33831787109375 14.1925048828125 117.5789184570313 9.4254150390625 138.1529235839844 C 6.9881591796875 148.6717681884766 5.1268310546875 159.4420776367188 3.89300537109375 170.1647033691406 C 2.636962890625 181.0817718505859 2.00006103515625 192.2228546142578 2.00006103515625 203.2783813476563 C 2.00006103515625 247.3939971923828 9.1575927734375 288.0567626953125 23.2738037109375 324.1370849609375 C 37.02789306640625 359.2917785644531 57.27032470703125 389.8298645019531 83.43890380859375 414.9030151367188 C 109.4351196289063 439.8110046386719 140.9892578125 459.0543212890625 177.2248840332031 472.0984497070313 C 213.9515075683594 485.3193054199219 255.0919494628906 492.0228576660156 299.5033264160156 492.0228576660156 C 321.7024230957031 492.0228576660156 343.6751098632813 490.2017822265625 364.8111877441406 486.6102294921875 C 385.6590270996094 483.0676879882813 405.9805908203125 477.75439453125 425.2113342285156 470.8179931640625 C 444.3128662109375 463.9281616210938 462.5875854492188 455.3473205566406 479.5276489257813 445.3139953613281 C 496.4794921875 435.2736206054688 512.3133544921875 423.649169921875 526.5892333984375 410.7636108398438 C 540.9818725585938 397.772705078125 553.98291015625 383.3260803222656 565.2310180664063 367.8250732421875 C 576.6510009765625 352.0873107910156 586.4276733398438 335.0358581542969 594.2894287109375 317.1443786621094 C 598.27490234375 308.074462890625 601.8312377929688 298.6385498046875 604.8598022460938 289.0988464355469 C 607.92529296875 279.4426879882813 610.5276489257813 269.4351501464844 612.5945434570313 259.3543090820313 C 614.6892700195313 249.1380004882813 616.2876586914063 238.5851593017578 617.3452758789063 227.98876953125 C 618.418212890625 217.2388458251953 618.962158203125 206.1670074462891 618.962158203125 195.0807037353516 C 618.962158203125 150.0655364990234 613.0958251953125 108.2532348632813 601.5260620117188 70.80508422851563 C 589.8302612304688 32.94931030273438 572.4287109375 -0.0242919921875 549.8048706054688 -27.19998168945313 C 544.0931396484375 -34.0609130859375 537.9739379882813 -40.6285400390625 531.617431640625 -46.72030639648438 C 525.2073364257813 -52.86337280273438 518.3878173828125 -58.68368530273438 511.3481140136719 -64.01962280273438 C 504.241943359375 -69.40591430664063 496.7243347167969 -74.44052124023438 489.0040283203125 -78.98361206054688 C 481.2033386230469 -83.57391357421875 472.9893188476563 -87.78384399414063 464.590087890625 -91.4964599609375 C 456.0962524414063 -95.25091552734375 447.187255859375 -98.59652709960938 438.1106567382813 -101.4403076171875 C 428.9249572753906 -104.3183898925781 419.322509765625 -106.7591552734375 409.5700378417969 -108.6950073242188 C 399.694091796875 -110.6553955078125 389.4000244140625 -112.1502990722656 378.9736328125 -113.1383666992188 C 368.4099731445313 -114.1393737792969 357.4265747070313 -114.6470031738281 346.3286437988281 -114.6470031738281 M 346.3286437988281 -116.6470031738281 C 526.8526611328125 -116.6470031738281 620.962158203125 14.5567626953125 620.962158203125 195.0807037353516 C 620.962158203125 375.6047058105469 480.0274963378906 494.0228576660156 299.5033264160156 494.0228576660156 C 118.9794921875 494.0228576660156 6.103515625e-05 383.8023986816406 6.103515625e-05 203.2783813476563 C 6.103515625e-05 22.75445556640625 165.8046569824219 -116.6470031738281 346.3286437988281 -116.6470031738281 Z" stroke="none" fill="#707070"/></g><path d="M326.868,0C507.392,0,653.735,22.754,653.735,203.278S507.392,530.146,326.868,530.146,0,383.8,0,203.278,146.344,0,326.868,0Z" transform="translate(725.144 1984.646) rotate(115)" fill="#7ec9cf"/></g></svg>