<svg xmlns="http://www.w3.org/2000/svg" width="273.681" height="261.911" viewBox="0 0 273.681 261.911">
  <g id="Group_31" data-name="Group 31" transform="translate(-121.908 -203.404)">
    <rect id="Rectangle_55" data-name="Rectangle 55" width="191.006" height="75.326" transform="translate(170.331 349.969)" fill="#fff"/>
    <path id="Path_129" data-name="Path 129" d="M204.944,296.078l18.692,2.437,21.943,4.878,9.752-1.218-1.625-16.662,1.625-16.253-4.876-17.067Z" transform="translate(106.78 62.739)" fill="#fad2d7"/>
    <path id="Path_130" data-name="Path 130" d="M290.307,326.779l-15.442,13.409-18.692,9.752-19.5,7.315-12.191,2.437H209.851l-9.752-2.437-10.973-6.094-18.285-13-11.784-9.345-4.062-6.908h26.819l17.065-7.315,4.876-4.876,4.878-14.628,7.313-12.191,9.752-2.437,9.752,4.876,2.439,14.628,7.315,12.191,7.313,4.876,17.067,4.876H293.15Z" transform="translate(42.548 99.085)" fill="#fad2d7"/>
    <path id="Path_131" data-name="Path 131" d="M123.531,338.139l34.134,19.5,58.513,12.191h36.57l49.98-13.409,26.821-17.067,29.255-36.57,2.437-41.446-4.876-17.067-19.5-19.5L295.416,207.7l-48.761-2.439-26.819,7.315L193.015,224.77,175.95,239.4l-17.067,21.943-7.315,19.5-7.313,21.943v17.067l-2.439,12.189-9.752-4.874Z" transform="translate(2.088 2.392)" fill="#ef7683"/>
    <g id="Group_30" data-name="Group 30" transform="translate(121.908 203.404)">
      <g id="Group_32" data-name="Group 32">
        <path id="Path_132" data-name="Path 132" d="M131,269.791s12.191,73.141,34.134,99.962l4.876,4.874L182.2,362.438l12.191,12.189h4.876l9.752-17.064-24.38-21.943L172.443,328.3l-7.313-14.628-4.876-26.819Z" transform="translate(-110.22 -118.035)" fill="#ef7683"/>
        <path id="Path_133" data-name="Path 133" d="M254.468,286.76l4.062,18.692v31.695L251.217,366.4l-12.191,21.943-9.752,9.754-26.819,21.943,9.752,12.189,14.628-12.189L243.9,432.23l29.258-39.007,12.189-43.886,2.439-39.009V276.194l-7.315-24.38-12.191-19.506L259.344,225l2.439,27.63-5.69,23.568Z" transform="translate(-18.328 -175.639)" fill="#ef7683"/>
        <path id="Path_134" data-name="Path 134" d="M148.718,327.32c.144,2.992.222,5.987.455,8.972a4.549,4.549,0,0,1-2.069,4.515,4.2,4.2,0,0,1-4.72-.183c-3.052-1.948-6.09-3.932-9.011-6.065-2.153-1.57-2.3-3.85-.725-5.927a4.226,4.226,0,0,1,6-.709,5.951,5.951,0,0,0,1.161.505,5.031,5.031,0,0,0,.341-1.255,127.812,127.812,0,0,1,2.316-23.344c.882-4.7,1.708-9.423,2.816-14.075a93.509,93.509,0,0,1,3.04-9.578c1.136-3.2,2.325-6.392,3.731-9.475,1.436-3.15,3.088-6.209,4.782-9.231a90.121,90.121,0,0,1,5.226-8.552,106.773,106.773,0,0,1,7.978-9.969,112.038,112.038,0,0,1,10.975-10.758,152.742,152.742,0,0,1,13.608-9.647,111.91,111.91,0,0,1,9.816-5.559c2.151-1.115,4.439-1.973,6.691-2.88,2.764-1.116,5.518-2.268,8.344-3.2,3.219-1.07,6.492-1.991,9.777-2.846,2.974-.775,5.969-1.538,9-2.014,5.591-.878,11.2-1.808,16.831-2.222a176.779,176.779,0,0,1,17.679-.336,137.856,137.856,0,0,1,26.7,3.28c4.122.933,8.28,1.8,12.285,3.125a148.487,148.487,0,0,1,14.2,5.527,115.049,115.049,0,0,1,12.122,6.373,55.76,55.76,0,0,1,8.133,6.074,70.061,70.061,0,0,1,8.3,8.4,122.543,122.543,0,0,1,7.425,11.011,4.381,4.381,0,0,0,2.519,2.039,26.054,26.054,0,0,1,11.2,7.461,54.312,54.312,0,0,1,9.247,15.057,85.76,85.76,0,0,1,3.641,10.369c1.433,5.086,2.723,10.225,3.786,15.4.848,4.144,1.353,8.364,1.863,12.568a236.214,236.214,0,0,1,1.264,35.19c-.139,5.063-.375,10.131-.811,15.179-.478,5.5-1.2,10.984-1.879,16.468a144.706,144.706,0,0,1-5.175,23.861c-.937,3.125-2.05,6.2-3.221,9.249-1.493,3.891-3.024,7.77-4.727,11.569a90.588,90.588,0,0,1-4.464,8.693c-2.588,4.423-5.258,8.808-8.1,13.076a95.79,95.79,0,0,1-6.316,8.287c-3.109,3.726-6.348,7.34-9.578,10.959a8.8,8.8,0,0,1-2.485,2.1,4.416,4.416,0,0,1-5.4-1.026c-3.049-2.912-6.215-5.7-9.313-8.57-.725-.67-1.285-.446-1.893.137-3.043,2.905-6.115,5.781-9.137,8.712a4.605,4.605,0,0,1-6.289-.231c-3.292-3.47-6.8-6.73-10.166-10.127-.848-.855-1.486-.789-2.528-.277q-5.6,2.764-11.336,5.26a68.091,68.091,0,0,1-20.532,5.109,54.3,54.3,0,0,1-18.125-1.257,105.558,105.558,0,0,1-10.355-2.821,98.329,98.329,0,0,1-9.827-4.252c-2.565-1.223-5.031-2.665-7.521-4.048-1.591-.88-2.451.391-3.287,1.212-3.836,3.758-7.587,7.6-11.356,11.427a4.46,4.46,0,0,1-6.1-.007c-3.008-2.88-6.076-5.7-9.1-8.57a1.238,1.238,0,0,0-2-.046c-3.033,2.782-6.163,5.466-9.157,8.291-2.375,2.24-5.626,2.153-7.56-.921-1.8-2.86-3.7-5.655-5.434-8.554-2.3-3.849-4.595-7.711-6.677-11.681-2.812-5.358-5.667-10.719-8.051-16.271-3.129-7.292-6.1-14.68-8.613-22.2-2.368-7.1-4.158-14.4-5.994-21.661a83.756,83.756,0,0,1-1.952-11,4.011,4.011,0,0,1,5.79-4.126,4.849,4.849,0,0,1,2.352,2.652c.981,3.731,1.481,7.585,2.439,11.325q2.441,9.543,5.242,19c1.264,4.224,2.787,8.378,4.318,12.518.908,2.453,2.053,4.814,3.1,7.214,1.3,2.981,2.526,5.994,3.92,8.927,1.34,2.823,2.83,5.578,4.3,8.337,1.374,2.585,2.764,5.164,4.231,7.694,1.653,2.851,3.372,5.662,5.127,8.451a1.078,1.078,0,0,0,1.842.238c2.9-2.677,5.85-5.3,8.739-7.983a4.323,4.323,0,0,1,6.412.1c2.9,2.741,5.722,5.573,8.586,8.355.686.663,1.164.974,2.08-.05,2.025-2.268,4.327-4.288,6.517-6.407,1.609-1.554,1.52-1.875-.315-3.191a89.4,89.4,0,0,1-15.144-13.151c-2.485-2.814-4.666-5.9-7.2-8.671a13.642,13.642,0,0,0-4.167-2.777c-4.224-2.03-8.243-4.423-10.886-8.332a33.011,33.011,0,0,1-4-8.515c-1.445-4.6-2.27-9.386-3.63-14.015a9.442,9.442,0,0,0-2.736-4.526c-2.693-2.19-3.12-5.082-3.4-8.12-.265-2.8-.409-5.6-.592-8.408a1.948,1.948,0,0,0-1.367-1.852c-5.015-2.041-10.083-3.973-14.984-6.261a138.418,138.418,0,0,1-12.214-6.561c-3.859-2.3-7.539-4.9-11.281-7.39-2.1-1.394-2.777-3.984-1.545-5.7,1.842-2.565,4.035-2.9,6.5-1.193,3.625,2.5,7.226,5.059,11.039,7.242,4.371,2.5,8.913,4.725,13.466,6.885a148.929,148.929,0,0,0,23.52,8.522,176.693,176.693,0,0,0,30.09,5.626,179.575,179.575,0,0,0,34.785.414c7.79-.72,15.572-1.66,23.3-2.871,5.393-.846,10.716-2.2,16.015-3.543,4.453-1.127,8.856-2.478,13.222-3.909a69.068,69.068,0,0,0,7.244-3.006c3.79-1.735,7.633-3.392,11.27-5.413a104.464,104.464,0,0,0,10.828-6.894,118.352,118.352,0,0,0,10.408-8.556,75.024,75.024,0,0,0,7.041-7.706,86.331,86.331,0,0,0,6.076-8.284,71.2,71.2,0,0,0,4.62-8.554,73.722,73.722,0,0,0,3.987-10.108,113.779,113.779,0,0,0,3.226-14.086,58.047,58.047,0,0,0-.636-21.975,49.293,49.293,0,0,0-13.178-24.041,66.741,66.741,0,0,0-15.588-11.912,108.8,108.8,0,0,0-13.572-6.238,136.53,136.53,0,0,0-15.11-4.688,126.214,126.214,0,0,0-24.007-3.564c-4.458-.24-8.931-.313-13.4-.274a111.14,111.14,0,0,0-21.945,2.243c-3.6.757-7.269,1.239-10.822,2.167a117.542,117.542,0,0,0-11.823,3.754,121.73,121.73,0,0,0-12.765,5.514,115.33,115.33,0,0,0-12.6,7.553,109.98,109.98,0,0,0-11.183,8.874A78.619,78.619,0,0,0,169.2,257.667c-2.537,3.914-4.91,7.944-7.166,12.026a93.5,93.5,0,0,0-8.074,21.211c-1.333,4.967-2.066,10.092-3.107,15.14a112.816,112.816,0,0,0-2.012,18.5c-.034.921,0,1.845,0,2.766l-.119,0m219.057-66.311c-.236.119-.469.235-.7.352.3,1.509.674,3.006.875,4.528a75.647,75.647,0,0,1-1.024,25.289c-1.04,5.015-2.892,9.862-4.279,14.811a7.967,7.967,0,0,0-.224,3.454c.871,4.741,2.117,9.42,2.819,14.184a127.8,127.8,0,0,1,.656,27.587c-.238,3.44-.786,6.86-1.212,10.287-.142,1.136-.169,2.135.969,2.915a3.453,3.453,0,0,1,1.484,3.365c-.4,4.073-.635,8.172-1.273,12.207-.215,1.358-1.39,2.6-2.238,3.813-.732,1.045-1.927,1.858-2.384,2.988-1.024,2.547-1.765,5.21-2.533,7.85-1.2,4.133-2.176,8.341-3.536,12.422-1.493,4.48-4.842,7.541-8.625,10.17a27.759,27.759,0,0,0-4.67,3.507c-1.927,2.066-3.488,4.469-5.244,6.7a71.932,71.932,0,0,1-11.7,11.8c-3.5,2.784-7.176,5.333-10.764,8-.622.462-.96.985-.231,1.7,1.8,1.756,3.541,3.584,5.4,5.278a1.65,1.65,0,0,0,1.607-.043c2.656-2.457,5.239-4.99,7.82-7.53,3.088-3.043,4.828-3.173,8.106-.318,2.873,2.5,5.649,5.111,8.449,7.692.7.642,1.4,1,2.128.165,2.531-2.91,5.143-5.756,7.509-8.8,2.645-3.4,5.153-6.926,7.541-10.515a105.127,105.127,0,0,0,5.555-9.295c1.971-3.751,3.717-7.626,5.463-11.491,1.148-2.54,2.213-5.123,3.155-7.745,1.1-3.068,2.13-6.17,3.02-9.3,1.052-3.715,2.069-7.45,2.832-11.231.8-3.966,1.431-7.983,1.879-12,.848-7.64,1.927-15.286,2.158-22.951.311-10.444.071-20.912-.242-31.361a123.43,123.43,0,0,0-1.6-15.1,145.91,145.91,0,0,0-2.935-14.317,114.19,114.19,0,0,0-4.339-13.61,72.06,72.06,0,0,0-5.4-10.339,41.6,41.6,0,0,0-4.27-5.1M327.844,424.623l-.233-.368c-.441,0-.882-.018-1.324,0-2.432.126-4.865.384-7.3.375-9.747-.032-19.234-1.381-28.09-5.809a25.8,25.8,0,0,1-10.68-9.045c-2.711-4.266-3.973-9.155-5.18-14.006-.944-3.795-3.815-7.459-8.072-7.937-4.579-.514-8.707,1.5-10.305,5.767-1.253,3.342-2.105,6.83-3.216,10.227a23.747,23.747,0,0,1-7.242,10.959,33.45,33.45,0,0,1-8.684,5.164,56.3,56.3,0,0,1-14.728,3.964,68.121,68.121,0,0,1-15.025.59c-.306-.027-.638.213-.956.329a2.82,2.82,0,0,0,.375.946,45.721,45.721,0,0,0,3.47,3.511c3.228,2.766,6.435,5.575,9.827,8.129a90.972,90.972,0,0,0,9.384,6.2,121.651,121.651,0,0,0,10.915,5.479,67.856,67.856,0,0,0,10.14,3.836,100.94,100.94,0,0,0,12.324,2.258,38.581,38.581,0,0,0,13.322-.745,71.146,71.146,0,0,0,10.7-3.075,151.934,151.934,0,0,0,14.171-6.337,72.609,72.609,0,0,0,9.507-6.017c4-2.908,7.854-6.014,11.651-9.18,1.888-1.575,3.5-3.472,5.242-5.223m-11.489-59.464c-4.412.325-9.48.555-14.509,1.113-4.467.5-8.943,1.143-13.119,3.006a12.3,12.3,0,0,0-7.116,7.189,15.69,15.69,0,0,0-.283,8.3c.7,3.941,1.33,7.9,2.185,11.8a23.586,23.586,0,0,0,4.339,9.862,25.285,25.285,0,0,0,12.644,8.449,67.584,67.584,0,0,0,13.174,2.812,41.88,41.88,0,0,0,23.353-3.9c5.335-2.611,8.6-6.778,10.689-12.243,2.053-5.381,2.553-11.016,3.269-16.612a40.628,40.628,0,0,0,.11-8.929c-.341-3.573-2.624-6.014-5.859-7.354a29.161,29.161,0,0,0-6.083-1.646,155.761,155.761,0,0,0-22.793-1.854M211.446,417.85c1.525-.119,2.992-.29,4.464-.334a51.662,51.662,0,0,0,15.1-3.029c4.56-1.552,8.723-3.916,11.7-8.04a23.191,23.191,0,0,0,4.188-8.835c.725-3.422,1.5-6.84,2.069-10.289.533-3.257,1.132-6.529.411-9.868-.242-1.12-.7-1.609-1.849-1.5-1.559.144-3.125.206-4.684.329a166.913,166.913,0,0,1-28.581.162c-5.406-.507-10.831-.912-16.207-1.664-5-.7-9.955-1.785-14.923-2.736-2.078-.4-2.6-.272-3.086,1.826a20.307,20.307,0,0,0-.8,6.485c.7,6.712,1.106,13.5,3.4,19.945,1.362,3.827,2.979,7.557,6.193,10.22a29.6,29.6,0,0,0,8.074,4.551c4.711,1.874,9.612,2.391,14.527,2.777m144.478-97c-.149-.08-.295-.162-.443-.242-9.151,15.08-21.844,26.448-36.847,35.524a21.064,21.064,0,0,0,3.511.3c4.4.322,8.805.72,13.21,1.038a125.573,125.573,0,0,1,19.307,3.1c.72.167,1.394.26,1.536-.78.146-1.095.4-2.176.519-3.271a141.681,141.681,0,0,0-.064-32.131c-.139-1.193-.482-2.361-.729-3.543" transform="translate(-121.908 -203.404)" fill="#1a1818"/>
        <path id="Path_135" data-name="Path 135" d="M194.866,312.853a33.153,33.153,0,0,1-15.73-3.674c-1.733-.9-2.227-2.713-1.1-3.834a4.9,4.9,0,0,1,5.843-.75,23.84,23.84,0,0,0,11.855,2.412,28.658,28.658,0,0,0,7.24-1.344c1.458-.446,2.921-.9,4.293-1.465a4.021,4.021,0,0,1,3.1.08c1.305.482,2.188,1.273,2.311,2.352a2.471,2.471,0,0,1-1.8,2.558,59.6,59.6,0,0,1-6.286,2.268,38.048,38.048,0,0,1-9.729,1.4" transform="translate(-50.509 -74.147)" fill="#1a1818"/>
        <path id="Path_136" data-name="Path 136" d="M189.621,303.8c-2.729-.19-4.892,0-6.824-.951-2.622-1.292-2.311-3.829.51-4.805a10.148,10.148,0,0,1,2.9-.352c2.1-.053,4.22.082,6.3-.057,2.606-.174,4.816.732,5.381,2.428.487,1.461-1.054,2.983-3.55,3.326-1.744.24-3.536.313-4.725.411" transform="translate(-45.92 -82.254)" fill="#1a1818"/>
        <path id="Path_137" data-name="Path 137" d="M206.356,299.128c.254-5.735,3.71-12.31,10.255-12.31s10,6.579,10.255,12.31c.27,6.1,9.779,6.131,9.507,0-.485-10.938-7.839-21.817-19.762-21.817s-19.277,10.881-19.764,21.817c-.272,6.119,9.237,6.108,9.51,0" transform="translate(-25.549 -108.365)" fill="#1a1818"/>
        <path id="Path_138" data-name="Path 138" d="M164.716,299.128c.256-5.735,3.71-12.31,10.255-12.31s10,6.579,10.255,12.31c.272,6.1,9.782,6.131,9.51,0-.487-10.938-7.841-21.817-19.764-21.817s-19.277,10.881-19.762,21.817c-.272,6.119,9.235,6.108,9.507,0" transform="translate(-79.092 -108.365)" fill="#1a1818"/>
        <path id="Path_139" data-name="Path 139" d="M261.136,254.868A35.74,35.74,0,1,1,225.4,219.13a35.738,35.738,0,0,1,35.738,35.738" transform="translate(-34.787 -183.182)" fill="#1a1818"/>
        <path id="Path_140" data-name="Path 140" d="M195.126,229.681h13.288v4.7h-7.857v4.3h7.322v4.547h-7.322v5.018h7.857V253H195.126Z" transform="translate(-27.753 -169.614)" fill="#fff"/>
        <path id="Path_141" data-name="Path 141" d="M210.171,229.462H213.6l-7.672,26.494h-3.376Z" transform="translate(-18.205 -169.896)" fill="#fff"/>
        <path id="Path_142" data-name="Path 142" d="M209.26,229.681h5.4v9.009h4.311v-9.009h5.45V253h-5.45v-9.761H214.66V253h-5.4Z" transform="translate(-9.578 -169.614)" fill="#fff"/>
      </g>
    </g>
  </g>
</svg>
