<svg xmlns="http://www.w3.org/2000/svg" width="905.541" height="906.47" viewBox="0 0 905.541 906.47">
  <g id="Group_14" data-name="Group 14" transform="translate(692.085 4726.187) rotate(180)" opacity="0.9">
    <g id="Path_18" data-name="Path 18" transform="matrix(-0.208, 0.978, -0.978, -0.208, 592.041, 4329.116)" fill="none" opacity="0.5">
      <path d="M-182.648,167.89C-81.43,56.01,348.395,154.418,392.275,283.681s16.009,201.677-85.209,313.557-425.729,91.973-544.245-.2S-283.866,279.77-182.648,167.89Z" stroke="none"/>
      <path d="M -17.92860412597656 121.11474609375 C -36.10610961914063 121.11474609375 -53.44410705566406 122.0551147460938 -69.46090698242188 123.9097290039063 C -86.02290344238281 125.8275146484375 -101.3922119140625 128.7494506835938 -115.1421051025391 132.59423828125 C -144.3450012207031 140.76025390625 -166.5583038330078 153.0870361328125 -181.164794921875 169.2321166992188 C -189.6661071777344 178.6290283203125 -198.0639953613281 188.9560546875 -206.1250915527344 199.9263305664063 C -214.1502990722656 210.84765625 -221.9287109375 222.5247192382813 -229.2442932128906 234.6333618164063 C -236.5866088867188 246.7861328125 -243.5422058105469 259.5051574707031 -249.9178161621094 272.4371337890625 C -256.367919921875 285.5201416015625 -262.2989196777344 298.9728393554688 -267.5462036132813 312.421630859375 C -278.4496154785156 340.3671569824219 -286.4369201660156 368.2385559082031 -291.2861022949219 395.2614440917969 C -296.4175109863281 423.8573303222656 -297.918212890625 450.9532470703125 -295.7463989257813 475.7964477539063 C -294.6797180175781 487.9981384277344 -292.7041015625 499.7551574707031 -289.87451171875 510.74072265625 C -286.9490051269531 522.0986328125 -283.0442199707031 532.8880615234375 -278.2684936523438 542.8092651367188 C -273.3269958496094 553.074951171875 -267.3352966308594 562.6546630859375 -260.4599914550781 571.2822265625 C -253.3388061523438 580.2183227539063 -245.0928955078125 588.3540649414063 -235.9512939453125 595.46337890625 C -206.2301940917969 618.5773315429688 -162.2264099121094 638.0003662109375 -108.6972045898438 651.632568359375 C -83.02680969238281 658.169921875 -55.74101257324219 663.2246704101563 -27.59790802001953 666.6560668945313 C 0.6338958740234375 670.0983276367188 29.21229553222656 671.84375 57.34339141845703 671.84375 C 83.38789367675781 671.84375 108.7693939208984 670.3388671875 132.7828979492188 667.370849609375 C 157.6656951904297 664.2953491210938 181.0247955322266 659.6519775390625 202.2115936279297 653.5695190429688 C 224.3681945800781 647.208740234375 244.23388671875 639.2450561523438 261.2567749023438 629.899658203125 C 270.0659790039063 625.0634765625 278.231201171875 619.78662109375 285.525390625 614.2156372070313 C 293.0069885253906 608.501708984375 299.7553100585938 602.3384399414063 305.5827941894531 595.8970336914063 C 318.7586975097656 581.333251953125 330.025390625 568.1831665039063 340.0264892578125 555.6954345703125 C 350.6760864257813 542.3982543945313 359.6893920898438 530.1084594726563 367.5813903808594 518.1238403320313 C 375.8009948730469 505.641845703125 382.5707092285156 493.8493347167969 388.2772827148438 482.0723571777344 C 391.1576843261719 476.1280517578125 393.7786865234375 470.1372375488281 396.0676879882813 464.2665405273438 C 398.3786010742188 458.3395385742188 400.4293823242188 452.3339538574219 402.1629943847656 446.416748046875 C 409.19140625 422.42724609375 411.6607971191406 397.9617309570313 409.71240234375 371.6222534179688 C 407.7806091308594 345.5079345703125 401.4573974609375 316.9525451660156 390.3811950683594 284.3242492675781 C 388.5538024902344 278.9408569335938 385.9797973632813 273.4752502441406 382.7308044433594 268.0792541503906 C 379.5418090820313 262.782958984375 375.6253051757813 257.4252319335938 371.090087890625 252.1549682617188 C 362.2514953613281 241.8836669921875 350.827392578125 231.6495361328125 337.1351928710938 221.73681640625 C 323.9151000976563 212.1658325195313 308.482177734375 202.8209228515625 291.2651977539063 193.961669921875 C 274.526611328125 185.3485717773438 256.036376953125 177.1591186523438 236.3081970214844 169.6209716796875 C 216.9225006103516 162.213623046875 196.3260955810547 155.4281616210938 175.0910949707031 149.4530639648438 C 153.9512939453125 143.504638671875 132.1974945068359 138.3645629882813 110.4336929321289 134.1752319335938 C 88.46929168701172 129.9473266601563 66.50588989257813 126.6905517578125 45.15359497070313 124.4955444335938 C 23.33209228515625 122.2522583007813 2.10809326171875 121.11474609375 -17.92860412597656 121.11474609375 M -17.92857360839844 119.11474609375 C 145.4587860107422 119.11474609375 361.8179931640625 193.9603881835938 392.2750854492188 283.6813354492188 C 436.1554870605469 412.9451599121094 408.28369140625 485.3588562011719 307.0658874511719 597.2388305664063 C 258.9342651367188 650.4404907226563 160.2986145019531 673.8438110351563 57.34343719482422 673.8438110351563 C -56.20985412597656 673.8438110351563 -175.0203552246094 645.3827514648438 -237.1791076660156 597.0421142578125 C -355.6952209472656 504.8727416992188 -283.8656005859375 279.7703552246094 -182.6479187011719 167.8903198242188 C -151.6845245361328 133.6653442382813 -89.93853759765625 119.11474609375 -17.92857360839844 119.11474609375 Z" stroke="none" fill="#fff"/>
    </g>
    <g id="Path_81" data-name="Path 81" transform="matrix(-0.559, 0.829, -0.829, -0.559, 549.826, 4451.406)" fill="none" opacity="0.75">
      <path d="M-190.221,167.89C-95.608,56.01,306.17,154.418,347.188,283.681s14.964,201.677-79.649,313.557-397.95,91.973-508.732-.2S-284.834,279.77-190.221,167.89Z" stroke="none"/>
      <path d="M -36.24981689453125 121.11474609375 C -53.23101806640625 121.11474609375 -69.42721557617188 122.054443359375 -84.38881683349609 123.9078369140625 C -99.85671997070313 125.823974609375 -114.2102203369141 128.7431640625 -127.0504150390625 132.584228515625 C -154.3150177001953 140.7404174804688 -175.0549163818359 153.0536499023438 -188.6940155029297 169.1818237304688 C -196.6792144775391 178.6243286132813 -204.5661163330078 189.00537109375 -212.1355133056641 200.0362548828125 C -219.6717224121094 211.0188598632813 -226.9735107421875 222.7625732421875 -233.8381042480469 234.9413452148438 C -240.7288208007813 247.1663208007813 -247.2524108886719 259.9600524902344 -253.2276306152344 272.9671325683594 C -259.2738037109375 286.1286315917969 -264.8276062011719 299.6593322753906 -269.7347106933594 313.1834411621094 C -279.9359130859375 341.29833984375 -287.3738098144531 369.3180541992188 -291.8417053222656 396.4642333984375 C -296.5727233886719 425.2080383300781 -297.8642272949219 452.4126586914063 -295.6805114746094 477.3221435546875 C -294.6244201660156 489.3702392578125 -292.7332153320313 500.9798583984375 -290.0595092773438 511.8283386230469 C -287.2963256835938 523.04052734375 -283.6341247558594 533.6939697265625 -279.1748046875 543.4927368164063 C -274.5634155273438 553.6260375976563 -268.9892272949219 563.0863647460938 -262.6071166992188 571.6109619140625 C -256.0020141601563 580.4335327148438 -248.3672180175781 588.4725341796875 -239.9150085449219 595.504638671875 C -212.1502227783203 618.6045532226563 -171.0409240722656 638.01611328125 -121.0314178466797 651.6410522460938 C -97.04631042480469 658.1756591796875 -71.55171966552734 663.2281494140625 -45.25581359863281 666.6581420898438 C -18.87691497802734 670.0990600585938 7.825883865356445 671.84375 34.1105842590332 671.84375 C 58.44458389282227 671.84375 82.15888214111328 670.3395385742188 104.5946807861328 667.3729248046875 C 127.8405838012695 664.2992553710938 149.6625823974609 659.6586303710938 169.45458984375 653.580078125 C 190.1501770019531 647.2239379882813 208.7054901123047 639.266357421875 224.6051788330078 629.92822265625 C 232.8330841064453 625.0958251953125 240.4594879150391 619.8231201171875 247.2726898193359 614.25634765625 C 254.2618865966797 608.5458374023438 260.5663757324219 602.3857421875 266.0111694335938 595.9473266601563 C 278.326904296875 581.384033203125 288.8580932617188 568.2344360351563 298.2063903808594 555.7471313476563 C 308.1609802246094 542.449951171875 316.586181640625 530.16015625 323.9632873535156 518.1754150390625 C 331.6473693847656 505.6922302246094 337.97607421875 493.8981323242188 343.3111877441406 482.1193542480469 C 348.7845764160156 470.0350341796875 353.0317687988281 458.3677368164063 356.2953796386719 446.4507446289063 C 362.8689880371094 422.4473571777344 365.1785888671875 397.9676513671875 363.3562927246094 371.6127319335938 C 361.5498962402344 345.488037109375 355.6374816894531 316.92333984375 345.2812805175781 284.2862548828125 C 341.88818359375 273.5932312011719 335.8194885253906 262.7655334472656 327.2435913085938 252.1039428710938 C 318.9846801757813 241.83642578125 308.3103942871094 231.6063232421875 295.5172729492188 221.6980590820313 C 283.1654663085938 212.1314697265625 268.74609375 202.790771484375 252.6595764160156 193.9353637695313 C 237.0193786621094 185.3256225585938 219.7422790527344 177.1393432617188 201.3082885742188 169.6040649414063 C 183.1936798095703 162.1991577148438 163.9477844238281 155.4159545898438 144.10498046875 149.44287109375 C 124.3511810302734 143.4965209960938 104.0234832763672 138.3580322265625 83.68668365478516 134.170166015625 C 63.16288375854492 129.9437255859375 42.64018249511719 126.688232421875 22.68878173828125 124.4940185546875 C 2.300182342529297 122.2517700195313 -17.52961730957031 121.11474609375 -36.24981689453125 121.11474609375 M -36.24983978271484 119.11474609375 C 116.4763412475586 119.11474609375 318.7178955078125 193.9603881835938 347.1875915527344 283.6813354492188 C 388.2047729492188 412.9451599121094 362.1515808105469 485.3588562011719 267.5382690429688 597.2388305664063 C 222.5473480224609 650.4404907226563 130.3477783203125 673.8438110351563 34.11054992675781 673.8438110351563 C -72.03327941894531 673.8438110351563 -183.0912933349609 645.3827514648438 -241.1941223144531 597.0421142578125 C -351.976806640625 504.8727416992188 -284.8343200683594 279.7703552246094 -190.2211151123047 167.8903198242188 C -161.2781066894531 133.6653442382813 -103.5610961914063 119.11474609375 -36.24983978271484 119.11474609375 Z" stroke="none" fill="#fff"/>
    </g>
    <g id="Path_82" data-name="Path 82" transform="matrix(0.682, -0.731, 0.731, 0.682, -96.755, 3996.414)" fill="none" opacity="0.25">
      <path d="M-192.389,174.562c92.723-127.184,486.474-15.316,526.672,131.63s14.665,229.264-78.058,356.448-390,104.553-498.568-.224S-285.112,301.746-192.389,174.562Z" stroke="none"/>
      <path d="M -41.49368286132813 121.11474609375 C -58.12097930908203 121.11474609375 -73.97898101806641 122.1819458007813 -88.62738037109375 124.286865234375 C -103.7684783935547 126.4625854492188 -117.8181762695313 129.7769775390625 -130.3860778808594 134.137939453125 C -157.083984375 143.4021606445313 -177.40087890625 157.3992309570313 -190.7724761962891 175.7403564453125 C -213.8214874267578 207.3556518554688 -235.243896484375 247.024169921875 -252.7236938476563 290.4573364257813 C -261.5593872070313 312.4119873046875 -269.2705688476563 335.0449523925781 -275.6431884765625 357.7276611328125 C -282.2169799804688 381.12646484375 -287.3414916992188 404.5000610351563 -290.8743896484375 427.1991577148438 C -294.5591735839844 450.874755859375 -296.5181884765625 473.8755493164063 -296.6969909667969 495.5626525878906 C -296.8846740722656 518.33544921875 -295.1072692871094 539.8477783203125 -291.4141845703125 559.501953125 C -289.4981689453125 569.6981201171875 -287.0338745117188 579.5479736328125 -284.0894775390625 588.7777709960938 C -281.0662841796875 598.2544555664063 -277.4607849121094 607.3164672851563 -273.3729858398438 615.712158203125 C -269.1753845214844 624.33349609375 -264.361083984375 632.473876953125 -259.0638732910156 639.9071655273438 C -253.6230773925781 647.5420532226563 -247.5301818847656 654.6309814453125 -240.9543762207031 660.97705078125 C -227.1731872558594 674.27685546875 -209.9752807617188 686.5592651367188 -189.8385772705078 697.483154296875 C -170.3933868408203 708.03173828125 -148.4082794189453 717.2123413085938 -124.4938812255859 724.7699584960938 C -101.0011825561523 732.1941528320313 -76.02998352050781 737.9345703125 -50.27397918701172 741.8316650390625 C -24.43708038330078 745.7408447265625 1.716817855834961 747.7230834960938 27.46101760864258 747.7230834960938 C 51.29331970214844 747.7230834960938 74.51821899414063 746.0142822265625 96.49071502685547 742.644287109375 C 119.2547149658203 739.1527709960938 140.6241149902344 733.881591796875 160.0053253173828 726.9769287109375 C 180.272216796875 719.7568359375 198.4441223144531 710.7168579101563 214.0164184570313 700.1080322265625 C 222.0782165527344 694.615966796875 229.551513671875 688.6223754882813 236.2288208007813 682.2939453125 C 243.0832214355469 675.7977294921875 249.2672119140625 668.7886962890625 254.6091156005859 661.46142578125 C 266.6815185546875 644.9022827148438 277.0049133300781 629.9500732421875 286.1692199707031 615.75048828125 C 295.9297180175781 600.626953125 304.1911315917969 586.6483764648438 311.4254150390625 573.0157470703125 C 318.9631042480469 558.8114013671875 325.1719055175781 545.3897705078125 330.4066162109375 531.9839477539063 C 335.7793273925781 518.2245483398438 339.94873046875 504.9385681152344 343.1529235839844 491.3668518066406 C 349.6089172363281 464.0218505859375 351.8773193359375 436.1350708007813 350.0877075195313 406.1131591796875 C 348.3148193359375 376.3722534179688 342.5140075683594 343.8603515625 332.35400390625 306.7195434570313 C 330.6702270507813 300.564453125 328.3003234863281 294.3187866210938 325.3100280761719 288.1559448242188 C 322.3805236816406 282.1183471679688 318.7843322753906 276.01318359375 314.6213073730469 270.009765625 C 306.5198059082031 258.3267822265625 296.0520324707031 246.6891479492188 283.5087280273438 235.4203491210938 C 271.4044189453125 224.5457763671875 257.2748413085938 213.9286499023438 241.5125122070313 203.86376953125 C 226.1893157958984 194.0792846679688 209.2628173828125 184.7761840820313 191.203125 176.212890625 C 173.4569244384766 167.7982788085938 154.6025238037109 160.090087890625 135.1635131835938 153.302490234375 C 115.8123168945313 146.5455322265625 95.89921569824219 140.7066650390625 75.97731781005859 135.9479370117188 C 55.87341690063477 131.1458740234375 35.77101898193359 127.4468383789063 16.22861862182617 124.953857421875 C -3.739980697631836 122.4063720703125 -23.16057968139648 121.11474609375 -41.49368286132813 121.11474609375 M -41.49363708496094 119.11474609375 C 108.1811981201172 119.11474609375 306.3822326660156 204.1983032226563 334.2831115722656 306.1918334960938 C 374.4808044433594 453.1371459960938 348.9481201171875 535.4560546875 256.2252197265625 662.6396484375 C 212.1331176757813 723.1185302734375 121.7755432128906 749.72314453125 27.46102714538574 749.72314453125 C -76.56216430664063 749.72314453125 -185.4012756347656 717.3690185546875 -242.3432922363281 662.4161376953125 C -350.9126892089844 557.6390380859375 -285.1114807128906 301.7457885742188 -192.3885803222656 174.5621337890625 C -164.0238494873047 135.6556396484375 -107.4600677490234 119.11474609375 -41.49363708496094 119.11474609375 Z" stroke="none" fill="#fff"/>
    </g>
  </g>
</svg>
