<svg xmlns="http://www.w3.org/2000/svg" width="459.279" height="195.237" viewBox="0 0 459.279 195.237"><g transform="translate(700.084 158.92) rotate(90)" fill="none" opacity="0.5"><path d="M-107.384,290.791c35.439-85.3,96.489-53.165,117.922,34.166s45.3,192.461,0,313.882-121.656,39.471-155.827-49.1S-142.823,376.087-107.384,290.791Z" stroke="none"/><path d="M -55.76922607421875 242.804443359375 C -60.17522430419922 242.804443359375 -64.56744384765625 243.7346801757813 -68.82394409179688 245.5691528320313 C -73.25851440429688 247.48046875 -77.60700988769531 250.3991088867188 -81.74858093261719 254.2439575195313 C -90.697509765625 262.5516967773438 -98.70108032226563 275.1060791015625 -105.536865234375 291.55859375 C -115.3528671264648 315.183837890625 -123.9719390869141 338.759033203125 -131.1546478271484 361.62939453125 C -139.6662902832031 388.7310180664063 -146.1650848388672 414.8905029296875 -150.4705200195313 439.3814697265625 C -160.9976501464844 499.2639465332031 -158.6265869140625 549.608642578125 -143.4231567382813 589.0172119140625 C -137.9210052490234 603.279052734375 -131.4760131835938 617.0158081054688 -124.2671508789063 629.845947265625 C -116.8069381713867 643.1234741210938 -108.8238677978516 654.8927001953125 -100.5396575927734 664.8267822265625 C -82.39630126953125 686.583740234375 -64.00987243652344 698.0838623046875 -47.36822509765625 698.0838623046875 C -42.28915405273438 698.0838623046875 -37.30829620361328 697.001953125 -32.56422424316406 694.8682861328125 C -27.55579376220703 692.6156616210938 -22.68358612060547 689.1351318359375 -18.08279418945313 684.5233154296875 C -13.21686553955078 679.6456909179688 -8.54315185546875 673.391357421875 -4.191581726074219 665.9342041015625 C 0.3820571899414063 658.0966186523438 4.707275390625 648.7452392578125 8.663909912109375 638.1398315429688 C 14.13412475585938 623.4775390625 18.78312683105469 608.489013671875 22.48170471191406 593.5907592773438 C 25.98670959472656 579.4725341796875 28.74505615234375 565.00341796875 30.68026733398438 550.5853271484375 C 32.50035095214844 537.0249633789063 33.64991760253906 523.0769653320313 34.09698486328125 509.128662109375 C 34.5130615234375 496.1481628417969 34.33427429199219 482.7237548828125 33.56556701660156 469.2282409667969 C 32.2265625 445.7210083007813 29.09263610839844 421.1597290039063 23.98463439941406 394.140869140625 C 19.4271240234375 370.03369140625 13.88320922851563 346.9803466796875 8.595413208007813 325.4339599609375 C 5.509201049804688 312.8583984375 1.536842346191406 301.2031860351563 -3.211296081542969 290.7920532226563 C -7.804008483886719 280.7217407226563 -13.05950927734375 271.9461669921875 -18.83179473876953 264.7090454101563 C -24.49993896484375 257.6024780273438 -30.55815124511719 252.1126098632813 -36.8380126953125 248.3919067382813 C -43.09579467773438 244.6843872070313 -49.46515655517578 242.804443359375 -55.76922607421875 242.804443359375 M -55.76921081542969 240.804443359375 C -28.80078887939453 240.804443359375 -2.170639038085938 273.1735229492188 10.53778076171875 324.957275390625 C 31.97013854980469 412.2887573242188 55.83749389648438 517.4178466796875 10.53778076171875 638.8388671875 C -5.852378845214844 682.7709350585938 -26.31594848632813 700.0838012695313 -47.36825561523438 700.0838012695313 C -84.50100708007813 700.0838012695313 -123.4817581176758 646.2630615234375 -145.2890777587891 589.737060546875 C -179.4599456787109 501.163818359375 -142.8232269287109 376.087158203125 -107.3837966918945 290.791259765625 C -92.95841217041016 256.0720825195313 -74.28207397460938 240.804443359375 -55.76921081542969 240.804443359375 Z" stroke="none" fill="#707070"/></g></svg>