<svg xmlns="http://www.w3.org/2000/svg" width="511.492" height="184.43" viewBox="0 0 511.492 184.43"><g transform="translate(-181.573 -1.556) rotate(-90)" fill="none" opacity="0.5"><path d="M-170.48,261.184c20.7-73.418,92.461-134.562,142.882,0S-7.286,554.229-55.882,634.4s-93.947,88.549-114.6-40.622S-191.177,334.6-170.48,261.184Z" stroke="none"/><path d="M -98.84413146972656 183.5726318359375 C -106.0966720581055 183.5726318359375 -113.4424438476563 185.6904296875 -120.6773681640625 189.8671875 C -127.5602874755859 193.8407592773438 -134.2432098388672 199.6061401367188 -140.5404357910156 207.003173828125 C -146.6081390380859 214.1306762695313 -152.1348266601563 222.5485229492188 -156.9669799804688 232.0228271484375 C -161.7350616455078 241.3713989257813 -165.6337432861328 251.3651123046875 -168.5546722412109 261.7262573242188 C -173.6230621337891 279.7045288085938 -177.5163726806641 301.3863525390625 -180.1265258789063 326.1695556640625 C -182.6900634765625 350.5098876953125 -183.9883728027344 377.5618896484375 -183.9854431152344 406.5740356445313 C -183.9795989990234 465.52880859375 -178.6264495849609 530.1544189453125 -168.5047454833984 593.4642333984375 C -165.7885894775391 610.45361328125 -162.5628204345703 625.4749755859375 -158.9171295166016 638.1112670898438 C -155.3995971679688 650.3031005859375 -151.4115142822266 660.5538330078125 -147.0637512207031 668.5784912109375 C -142.9133605957031 676.2386474609375 -138.3569030761719 682.01953125 -133.5209808349609 685.7604370117188 C -131.2162170410156 687.5432739257813 -128.8055114746094 688.8928833007813 -126.3559036254883 689.7717895507813 C -123.9646759033203 690.6298217773438 -121.463134765625 691.0648193359375 -118.9207458496094 691.0648193359375 C -110.2279815673828 691.0648193359375 -100.5255966186523 686.0441284179688 -90.08290100097656 676.1422119140625 C -79.84320831298828 666.4327392578125 -68.91175079345703 652.0406494140625 -57.59213256835938 633.3656616210938 C -51.55120849609375 623.3992919921875 -45.79313659667969 612.1948852539063 -40.47798156738281 600.0636596679688 C -35.08790588378906 587.761474609375 -30.14228820800781 574.4796142578125 -25.77859497070313 560.5872802734375 C -21.30583190917969 546.3477172851563 -17.42367553710938 531.397705078125 -14.23989868164063 516.1524658203125 C -10.94798278808594 500.3891906738281 -8.37628173828125 484.1783447265625 -6.596206665039063 467.9703369140625 C -2.78289794921875 433.2481079101563 -2.54913330078125 398.6684875488281 -5.901596069335938 365.1921997070313 C -9.566131591796875 328.5996704101563 -17.49574279785156 293.8421630859375 -29.47013854980469 261.8853149414063 C -39.65528869628906 234.7036743164063 -51.22760009765625 214.2267456054688 -63.86575317382813 201.0233154296875 C -74.94936370849609 189.4439086914063 -86.71782684326172 183.5726318359375 -98.84413146972656 183.5726318359375 M -98.84413146972656 181.5726318359375 C -74.99066925048828 181.5726318359375 -49.3179931640625 203.2162475585938 -27.5972900390625 261.18359375 C 22.82371520996094 395.7453308105469 -7.28582763671875 554.2291259765625 -55.88182830810547 634.40234375 C -78.2845458984375 671.362060546875 -99.99938201904297 693.0648193359375 -118.9207763671875 693.0648193359375 C -141.0437622070313 693.0648193359375 -159.3486633300781 663.4034423828125 -170.4796752929688 593.780029296875 C -191.1309051513672 464.60888671875 -191.1772155761719 334.6011352539063 -170.4796752929688 261.18359375 C -158.6983489990234 219.393310546875 -130.3626098632813 181.5726318359375 -98.84413146972656 181.5726318359375 Z" stroke="none" fill="#707070"/></g></svg>