<svg xmlns="http://www.w3.org/2000/svg" width="476.128" height="207.381" viewBox="0 0 476.128 207.381"><g transform="translate(697.801 187.855) rotate(90)" fill="none" opacity="0.5"><path d="M-170.48,313.946c20.7-73.418,161.379-156.518,181.017-16.231S17.7,516.592-27.6,638.013s-127.842,37.8-147.274-72.474S-191.177,387.364-170.48,313.946Z" stroke="none"/><path d="M -54.69271850585938 223.6729125976563 C -60.27287292480469 223.6729125976563 -66.15825653076172 224.3775024414063 -72.18540954589844 225.7669677734375 C -78.00571441650391 227.1087646484375 -84.01409912109375 229.101318359375 -90.04364013671875 231.6893920898438 C -95.90048217773438 234.2032470703125 -101.8114852905273 237.29296875 -107.6124877929688 240.8724975585938 C -113.2977142333984 244.3805541992188 -118.891716003418 248.3675537109375 -124.2390289306641 252.7227172851563 C -129.5396423339844 257.0397338867188 -134.5996398925781 261.7196044921875 -139.278564453125 266.6323852539063 C -143.9746398925781 271.5632934570313 -148.2864074707031 276.7284545898438 -152.0939483642578 281.9844970703125 C -155.9605560302734 287.3218383789063 -159.3125610351563 292.7609252929688 -162.0567932128906 298.1505737304688 C -164.8694915771484 303.674560546875 -167.0557098388672 309.1715698242188 -168.5547180175781 314.48876953125 C -173.9051055908203 333.4671630859375 -177.8629455566406 351.3091430664063 -180.6546325683594 369.0341186523438 C -183.6056365966797 387.7706909179688 -185.2640228271484 406.3938598632813 -185.7245635986328 425.9677124023438 C -186.1976318359375 446.0716247558594 -185.4051818847656 466.9664916992188 -183.3018646240234 489.8463134765625 C -181.1908721923828 512.8108520507813 -177.7888641357422 537.4566650390625 -172.9015655517578 565.1920166015625 C -169.8145599365234 582.7108154296875 -165.1164855957031 599.7275390625 -158.9379425048828 615.7696533203125 C -155.9463348388672 623.5369873046875 -152.6164855957031 631.0240478515625 -149.0408630371094 638.02294921875 C -145.4819488525391 644.9891357421875 -141.6485595703125 651.532470703125 -137.6471710205078 657.4710693359375 C -133.6320190429688 663.4302368164063 -129.4126434326172 668.83251953125 -125.1061782836914 673.52783203125 C -120.756103515625 678.270751953125 -116.2757110595703 682.33740234375 -111.7894134521484 685.6146240234375 C -107.2384796142578 688.9390869140625 -102.6307907104492 691.4876708984375 -98.09440612792969 693.1896362304688 C -93.47563934326172 694.9224853515625 -88.86402130126953 695.8010864257813 -84.38771820068359 695.8010864257813 C -74.18441009521484 695.8010864257813 -64.50025177001953 691.287841796875 -55.60433197021484 682.3867797851563 C -45.7392578125 672.5159301757813 -36.94679260253906 657.3511962890625 -29.47117614746094 637.313720703125 C -17.36155700683594 604.8551025390625 -8.535873413085938 578.0068359375 -1.696334838867188 552.8206176757813 C 5.691360473632813 525.6158447265625 10.77220153808594 500.0621032714844 13.83651733398438 474.6990966796875 C 17.00059509277344 448.5104675292969 18.11236572265625 421.8050231933594 17.23536682128906 393.0567626953125 C 16.36735534667969 364.60302734375 13.52867126464844 333.5072631835938 8.557052612304688 297.9927978515625 C 4.9539794921875 272.2540283203125 -2.942092895507813 252.828857421875 -14.91178894042969 240.2569580078125 C -20.26948547363281 234.629638671875 -26.47956848144531 230.3726196289063 -33.36964416503906 227.604248046875 C -39.86194610595703 224.99560546875 -47.03602600097656 223.6729125976563 -54.69271850585938 223.6729125976563 M -54.69273376464844 221.6729736328125 C -23.95079040527344 221.6729736328125 2.766952514648438 242.205078125 10.53775024414063 297.7154541015625 C 30.17636108398438 438.0027770996094 17.70236206054688 516.591796875 -27.59733581542969 638.0128173828125 C -43.40964508056641 680.3959350585938 -63.76792144775391 697.8011474609375 -84.38768005371094 697.8011474609375 C -122.8401565551758 697.8011474609375 -162.2222900390625 637.322021484375 -174.8712463378906 565.5390625 C -194.3031768798828 455.2632446289063 -191.17724609375 387.363525390625 -170.4797210693359 313.9461059570313 C -157.9720001220703 269.5792236328125 -101.642578125 221.6729736328125 -54.69273376464844 221.6729736328125 Z" stroke="none" fill="#707070"/></g></svg>