<?xml version="1.0" encoding="utf-8"?>
<!-- Generator: Adobe Illustrator 19.0.0, SVG Export Plug-In . SVG Version: 6.00 Build 0)  -->
<svg version="1.1" id="Layer_1" xmlns="http://www.w3.org/2000/svg" xmlns:xlink="http://www.w3.org/1999/xlink" x="0px" y="0px"
	 viewBox="558.4 -328.9 1355.2 1433.9" style="enable-background:new 558.4 -328.9 1355.2 1433.9;" xml:space="preserve">
<style type="text/css">
	.st0{opacity:0.5;}
	.st1{fill:none;}
	.st2{fill:#9D9D9D;}
	.st3{opacity:0.25;}
	.st4{fill:#707070;}
	.st5{opacity:0.75;}
</style>
<g transform="translate(-74.581 279.367)">
	<g transform="translate(277.112 -50.972)" class="st0">
		<path class="st1" d="M967.9-454.3c338,0,612,46.1,612,417s-274,672-612,672s-612-301.1-612-672S629.9-454.3,967.9-454.3z"/>
		<path class="st2" d="M967.9-452.3c-46.4,0-86.7,0.9-123.2,2.7c-20.4,1-40.1,2.4-58.6,4c-19.5,1.7-38.4,3.8-56.1,6.3
			c-18.6,2.6-36.5,5.6-53.4,9c-17.5,3.5-34.5,7.6-50.3,12.1c-16.4,4.7-32.2,9.9-46.9,15.6c-15.2,5.9-29.8,12.5-43.3,19.5
			c-13.9,7.3-27.1,15.3-39.3,23.8c-12.5,8.8-24.3,18.4-35,28.5c-11,10.4-21.2,21.7-30.4,33.6c-9.4,12.2-18,25.4-25.6,39.2
			c-7.7,14.1-14.6,29.3-20.5,45.1c-6,16.2-11,33.5-15,51.6c-4.1,18.4-7.2,38-9.2,58.4c-2.1,20.7-3.1,42.8-3.1,65.6
			c0,22.8,1.1,45.9,3.2,68.5c2.1,22.3,5.2,44.7,9.2,66.5c4,21.6,9.1,43.2,15,64.2c5.9,20.8,12.8,41.5,20.5,61.6
			c7.7,19.9,16.3,39.6,25.7,58.6c9.3,18.9,19.6,37.4,30.6,55.2c10.9,17.7,22.7,35.1,35.1,51.6c12.4,16.5,25.6,32.5,39.4,47.6
			c13.8,15.1,28.3,29.7,43.3,43.2c15,13.6,30.8,26.6,47,38.6c16.2,12,33.1,23.3,50.3,33.6c17.3,10.3,35.2,19.8,53.3,28.2
			c18.3,8.5,37.1,16.1,56,22.5c19.1,6.5,38.8,12.1,58.4,16.5c19.9,4.5,40.3,7.9,60.5,10.2c20.6,2.3,41.5,3.5,62.3,3.5
			s41.8-1.2,62.3-3.5c20.3-2.3,40.6-5.7,60.5-10.2c19.6-4.4,39.3-10,58.4-16.5c18.9-6.5,37.8-14,56-22.5c18.1-8.4,36-17.9,53.3-28.2
			c17.2-10.2,34.1-21.5,50.3-33.6c16.1-12,31.9-24.9,47-38.6c15-13.6,29.6-28.1,43.3-43.2c13.8-15.1,27-31.1,39.4-47.6
			c12.4-16.5,24.2-33.9,35.1-51.6c11-17.8,21.2-36.4,30.6-55.2c9.4-19,18-38.7,25.7-58.6c7.7-20.1,14.6-40.8,20.5-61.6
			c6-21,11-42.6,15-64.2c4.1-21.9,7.2-44.2,9.2-66.5c2.1-22.6,3.2-45.6,3.2-68.5c0-22.8-1.1-44.9-3.1-65.6
			c-2.1-20.4-5.2-40-9.2-58.4c-4-18-9-35.4-15-51.6c-5.8-15.9-12.7-31-20.5-45.1c-7.6-13.8-16.2-27-25.6-39.2
			c-9.2-11.9-19.4-23.2-30.4-33.6c-10.7-10.2-22.5-19.8-35-28.5c-12.2-8.5-25.4-16.5-39.3-23.8c-13.5-7.1-28.1-13.6-43.3-19.5
			c-14.7-5.7-30.5-11-46.9-15.6c-15.8-4.5-32.8-8.6-50.3-12.1c-16.8-3.4-34.8-6.4-53.4-9c-17.7-2.4-36.6-4.6-56.1-6.3
			c-18.4-1.6-38.1-3-58.6-4C1054.6-451.4,1014.3-452.3,967.9-452.3 M967.9-454.3c338,0,612,46.1,612,417s-274,672-612,672
			s-612-301.1-612-672S629.9-454.3,967.9-454.3z"/>
	</g>
	<g transform="matrix(-0.469, 0.883, -0.883, -0.469, 1810.471, 292.718)" class="st3">
		<path class="st1" d="M57.5-68.8C465.7-81.5,789.8,98.4,777,485.3s-339.8,650.6-748.1,663.4s-669.6-215.1-656.8-602
			S-350.8-56.1,57.5-68.8z"/>
		<path class="st4" d="M97.6-67.4c-13.2,0-26.7,0.2-40.1,0.6C32.2-66,7.1-64.4-17.2-62c-24.2,2.4-48.1,5.5-71.2,9.5
			c-23,3.9-45.7,8.7-67.5,14.1c-21.8,5.4-43.2,11.7-63.6,18.7c-20.5,7-40.5,14.8-59.6,23.3c-19.1,8.5-37.8,17.8-55.4,27.8
			c-17.7,10-34.9,20.8-51.1,32.2c-16.3,11.4-31.9,23.8-46.6,36.6c-14.7,12.9-28.9,26.7-42,41c-13.2,14.4-25.7,29.6-37.2,45.3
			c-11.6,15.8-22.5,32.5-32.3,49.6c-9.9,17.2-19.1,35.3-27.2,53.8c-8.2,18.6-15.6,38.1-22,58c-6.4,20-12,40.9-16.6,62.2
			c-4.6,21.4-8.3,43.7-11,66.3c-2.7,22.8-4.5,46.4-5.3,70.4c-0.7,22.2-0.6,44.3,0.5,65.6c1.1,21.1,3.1,42.1,5.9,62.3
			c2.8,20,6.6,39.8,11.1,58.9c4.5,18.9,10,37.5,16.2,55.3c6.2,17.7,13.3,35.1,21.1,51.7c7.8,16.5,16.5,32.7,25.9,48
			c9.3,15.3,19.6,30.2,30.5,44.3c10.9,14,22.6,27.6,35,40.4c13.5,14,28.1,27.3,43.3,39.7c15.2,12.4,31.5,24.1,48.3,34.8
			c16.9,10.7,34.7,20.8,53.2,29.8c18.4,9.1,37.9,17.4,57.8,24.7c80.9,29.8,173,44.9,273.7,44.9c10.6,0,21.4-0.2,32.2-0.5
			c25.2-0.8,50.6-2.6,75.4-5.3c24.6-2.7,49.2-6.4,73.1-11c23.8-4.6,47.5-10.1,70.6-16.5c22.9-6.3,45.7-13.7,67.6-21.8
			c21.9-8.1,43.6-17.1,64.4-26.9c20.8-9.8,41.2-20.5,60.7-31.8c19.5-11.4,38.7-23.7,56.8-36.6c18.2-12.9,35.9-26.8,52.5-41.1
			c16.7-14.4,32.8-29.7,47.9-45.5c15.1-15.9,29.6-32.6,42.9-49.7c13.4-17.2,26.1-35.3,37.6-53.7c11.6-18.5,22.4-37.9,32-57.5
			c9.7-19.8,18.4-40.4,26-61.1c7.6-21,14.3-42.7,19.7-64.5c5.5-22.1,9.9-44.9,13-67.8c3.2-23.2,5.2-47,6-70.9
			c0.6-19.1,0.4-38-0.6-56.3c-1-18.1-2.8-36-5.4-53.2c-2.6-17-6-33.9-10.1-50.1c-4.1-16-9-31.9-14.5-47c-5.5-15-11.8-29.8-18.8-44
			c-6.9-14-14.6-27.8-22.9-40.9c-8.2-13-17.2-25.8-26.8-37.9c-9.5-12-19.7-23.8-30.5-34.9c-15.1-15.6-31.7-30.5-49.2-44.3
			c-17.4-13.6-36.1-26.5-55.8-38.3C520.8,26.4,500,15.6,478.4,5.8c-21.4-9.7-44-18.6-67.3-26.4c-23.1-7.8-47.4-14.6-72.3-20.5
			c-24.7-5.8-50.5-10.7-76.7-14.6c-26.1-3.9-53.2-6.8-80.6-8.7C154.2-66.4,126-67.4,97.6-67.4 M97.6-69.4
			c389.2,0,691.7,180.6,679.4,554.7c-12.7,386.9-339.8,650.6-748.1,663.4c-10.8,0.3-21.6,0.5-32.3,0.5
			c-389.7,0-637-225.9-624.6-602.5C-615.2,159.8-350.8-56.1,57.5-68.8C70.9-69.2,84.4-69.4,97.6-69.4z"/>
	</g>
	<g transform="translate(1622.058 1226.941) rotate(-179)" class="st5">
		<path class="st1" d="M-112.8,608.1C86.4,424.7,873.8,580.8,955.3,842.9s52,457.9-136.1,684.8s-775.6,264.8-1032.4-59.3
			S-312,791.5-112.8,608.1z"/>
		<path class="st4" d="M192.1,530.4c-33.1,0-64.9,1.6-94.4,4.7c-30.4,3.2-58.7,8-84.3,14.4c-13.1,3.3-25.6,7-37.3,11
			c-11.9,4.1-23.2,8.7-33.5,13.7c-10.5,5-20.4,10.5-29.3,16.3c-9.1,5.9-17.4,12.4-24.7,19.1c-25.3,23.3-49.4,48.9-71.8,76.1
			c-23.3,28.4-44.8,58.6-63.6,89.7c-9.8,16.1-19,32.6-27.4,49.2c-8.6,17-16.6,34.4-23.7,51.7c-7.3,17.8-13.8,35.9-19.4,53.9
			c-5.8,18.5-10.7,37.3-14.7,55.8c-17.1,80.2-17,159.8,0.1,236.7c4.6,20.5,10.4,41.1,17.4,61.1c7.2,20.6,15.8,41.2,25.5,61.3
			c10,20.6,21.5,41.2,34.1,61.2c13,20.5,27.5,41,43.3,60.9c8.1,10.2,16.6,20.2,25.4,29.8c8.7,9.4,17.9,18.7,27.3,27.6
			c9.3,8.7,19.1,17.3,29,25.5c9.8,8,20.1,15.9,30.6,23.4c20.5,14.6,42.6,28.3,65.4,40.6c22.3,12,45.8,23,70.1,32.6
			c46.9,18.7,97.2,33,149.7,42.4c50.3,9.1,102.4,13.7,154.7,13.7c49,0,97.8-4,145.1-12c46.9-7.9,91.7-19.6,133.3-34.7
			c42-15.3,80.1-33.9,113.3-55.4c34.2-22.1,62.9-47.1,85.3-74.2c11.7-14.1,22.9-28.3,33.4-42.1c10.5-13.9,20.5-27.9,29.7-41.5
			c9.3-13.7,18.1-27.5,26.1-41.1c8.1-13.6,15.7-27.3,22.6-40.8c6.9-13.5,13.4-27.1,19.2-40.6c5.8-13.4,11.1-27.1,15.8-40.6
			c4.7-13.4,8.9-27.1,12.5-40.7c3.6-13.5,6.7-27.3,9.3-40.9c2.6-13.6,4.6-27.5,6.2-41.4c1.5-13.8,2.6-27.9,3.1-41.9
			c0.5-14,0.6-28.3,0.1-42.6c-0.5-14.2-1.4-28.8-2.9-43.5c-1.4-14.5-3.3-29.5-5.7-44.5c-2.4-14.8-5.2-30.2-8.5-45.6
			c-3.3-15.2-7.1-31-11.3-46.9c-4.2-15.7-8.8-31.9-13.9-48.3c-3.5-11.1-8.3-22.3-14.4-33.3c-6-10.8-13.3-21.6-21.8-32.1
			c-8.3-10.3-18-20.7-28.6-30.7c-10.5-9.9-22.2-19.7-34.8-29.2c-24.6-18.6-53.3-36.5-85.5-53.4c-31-16.3-65.5-31.7-102.3-45.8
			c-35.9-13.7-74.2-26.3-114-37.3c-39.1-10.8-79.7-20.2-120.4-27.8c-40.7-7.6-81.7-13.4-121.7-17.4
			C269.3,532.4,229.7,530.4,192.1,530.4 M192.1,528.4c304.7,0,706.3,131.4,763.2,314.5c81.5,262.1,52,457.9-136.1,684.8
			c-92.2,111.2-280.4,177-478.6,177c-206.1,0-422.9-71.1-553.9-236.3c-256.9-324-98.8-677,100.4-860.4
			C-52.8,552.8,60.7,528.4,192.1,528.4z"/>
	</g>
</g>
</svg>
