<?xml version="1.0" encoding="utf-8"?>
<!-- Generator: Adobe Illustrator 19.0.0, SVG Export Plug-In . SVG Version: 6.00 Build 0)  -->
<svg version="1.1" id="Layer_1" xmlns="http://www.w3.org/2000/svg" xmlns:xlink="http://www.w3.org/1999/xlink" x="0px" y="0px"
	 viewBox="-438.7 341 91.2 98.3" style="enable-background:new -438.7 341 91.2 98.3;" xml:space="preserve">
<style type="text/css">
	.st0{opacity:0.6;fill:#EDE600;enable-background:new    ;}
	.st1{opacity:0.6;fill:#EE0046;enable-background:new    ;}
	.st2{opacity:0.6;fill:#0095A1;enable-background:new    ;}
</style>
<g transform="translate(-161.146 -51.299)">
	<path class="st0" d="M-199.2,421.6c11.5,1.4,16.8,29.6,9.5,40c-7.3,10.4-26.9,16.1-37.2,8.8s1.6-19.2,8.8-29.6
		S-210.7,420.2-199.2,421.6z"/>
	<path class="st1" d="M-233.8,458.8c11.1,2.4,19.9,6.8,17.6,17.9c-2.4,11.1-17.9,15.7-29,13.3c-11.1-2.4-23.1-15-20.7-26.1
		S-244.9,456.4-233.8,458.8z"/>
	<path class="st2" d="M-220.8,393.5c27,4.4,25.8,29.4,17.5,51.1s-23.5,38.8-45.2,30.5c-21.7-8.3-34.9-35.7-26.6-57.4
		C-266.7,396-247.7,389.2-220.8,393.5z"/>
</g>
</svg>
